<?xml version="1.0" standalone="no"?>
<!DOCTYPE svg PUBLIC "-//W3C//DTD SVG 1.1//EN" "http://www.w3.org/Graphics/SVG/1.1/DTD/svg11.dtd">
<!--Generator: Xara Xtreme (www.xara.com), SVG filter version: 1.0.0.13-->
<svg stroke-width="0.501" stroke-linejoin="bevel" fill-rule="evenodd" xmlns:xlink="http://www.w3.org/1999/xlink" xmlns="http://www.w3.org/2000/svg" version="1.1" overflow="visible" width="45pt" height="45pt" viewBox="0 0 45 45">
 <defs>
  <marker id="DefaultArrow2" markerUnits="strokeWidth" viewBox="0 0 1 1" markerWidth="1" markerHeight="1" overflow="visible" orient="auto">
   <!-- REF_ARROW_STRAIGHT (-2) -->
   <g transform="scale(0.0092592592)">
    <!-- 1/108 -->
    <path d="M -9 54 L -9 -54 L 117 0 z"/>
   </g>
  </marker>
  <marker id="DefaultArrow3" markerUnits="strokeWidth" viewBox="0 0 1 1" markerWidth="1" markerHeight="1" overflow="visible" orient="auto">
   <!-- REF_ARROW_ANGLED -->
   <g transform="scale(0.0092592592)">
    <path d="M -27 54 L -9 0 L -27 -54 L 135 0 z"/>
   </g>
  </marker>
  <marker id="DefaultArrow4" markerUnits="strokeWidth" viewBox="0 0 1 1" markerWidth="1" markerHeight="1" overflow="visible" orient="auto">
   <!-- REF_ARROW_ROUNDED -->
   <g transform="scale(0.0092592592)">
    <path d="M -9,0 L -9,-45 C -9,-51.708 2.808,-56.580 9,-54 L 117,-9 C 120.916,-7.369 126.000,-4.242 126,0 C 126,4.242 120.916,7.369 117,9 L 9,54 C 2.808,56.580 -9,51.708 -9,45 z"/>
   </g>
  </marker>
  <marker id="DefaultArrow5" markerUnits="strokeWidth" viewBox="0 0 1 1" markerWidth="1" markerHeight="1" overflow="visible" orient="auto">
   <!-- REF_ARROW_SPOT -->
   <g transform="scale(0.0092592592)">
    <path d="M -54, 0 C -54,29.807 -29.807,54 0,54 C 29.807,54 54,29.807 54,0 C 54,-29.807 29.807,-54 0,-54 C -29.807,-54 -54,-29.807 -54,0 z"/>
   </g>
  </marker>
  <marker id="DefaultArrow6" markerUnits="strokeWidth" viewBox="0 0 1 1" markerWidth="1" markerHeight="1" overflow="visible" orient="auto">
   <!-- REF_ARROW_DIAMOND -->
   <g transform="scale(0.0092592592)">
    <path d="M -63,0 L 0,63 L 63,0 L 0,-63 z"/>
   </g>
  </marker>
  <marker id="DefaultArrow7" markerUnits="strokeWidth" viewBox="0 0 1 1" markerWidth="1" markerHeight="1" overflow="visible" orient="auto">
   <!-- REF_ARROW_FEATHER -->
   <g transform="scale(0.0092592592)">
    <path d="M 18,-54 L 108,-54 L 63,0 L 108,54 L 18, 54 L -36,0 z"/>
   </g>
  </marker>
  <marker id="DefaultArrow8" markerUnits="strokeWidth" viewBox="0 0 1 1" markerWidth="1" markerHeight="1" overflow="visible" orient="auto">
   <!-- REF_ARROW_FEATHER2 -->
   <g transform="scale(0.0092592592)">
    <path d="M -36,0 L 18,-54 L 54,-54 L 18,-18 L 27,-18 L 63,-54 L 99,-54 L 63,-18 L 72,-18 L 108,-54 L 144,-54 L 90,0 L 144,54 L 108,54 L 72,18 L 63,18 L 99,54 L 63,54 L 27,18 L 18,18 L 54,54 L 18,54 z"/>
   </g>
  </marker>
  <marker id="DefaultArrow9" markerUnits="strokeWidth" viewBox="0 0 1 1" markerWidth="1" markerHeight="1" overflow="visible" orient="auto">
   <!-- REF_ARROW_HOLLOWDIAMOND -->
   <g transform="scale(0.0092592592)">
    <path d="M 0,45 L -45,0 L 0, -45 L 45, 0 z M 0, 63 L-63, 0 L 0, -63 L 63, 0 z"/>
   </g>
  </marker>
  <filter id="StainedFilter">
   <feBlend mode="multiply" in2="BackgroundImage" in="SourceGraphic" result="blend"/>
   <feComposite in="blend" in2="SourceAlpha" operator="in" result="comp"/>
  </filter>
  <filter id="BleachFilter">
   <feBlend mode="screen" in2="BackgroundImage" in="SourceGraphic" result="blend"/>
   <feComposite in="blend" in2="SourceAlpha" operator="in" result="comp"/>
  </filter>
  <filter id="InvertTransparencyBitmapFilter">
   <feComponentTransfer>
    <feFuncR type="gamma" amplitude="1.055" exponent=".416666666" offset="-0.055"/>
    <feFuncG type="gamma" amplitude="1.055" exponent=".416666666" offset="-0.055"/>
    <feFuncB type="gamma" amplitude="1.055" exponent=".416666666" offset="-0.055"/>
   </feComponentTransfer>
   <feComponentTransfer>
    <feFuncR type="linear" slope="-1" intercept="1"/>
    <feFuncG type="linear" slope="-1" intercept="1"/>
    <feFuncB type="linear" slope="-1" intercept="1"/>
    <feFuncA type="linear" slope="1" intercept="0"/>
   </feComponentTransfer>
   <feComponentTransfer>
    <feFuncR type="gamma" amplitude="1" exponent="2.4" offset="0"/>
    <feFuncG type="gamma" amplitude="1" exponent="2.4" offset="0"/>
    <feFuncB type="gamma" amplitude="1" exponent="2.4" offset="0"/>
   </feComponentTransfer>
  </filter>
 </defs>
 <g id="Document" fill="none" stroke="black" font-family="Times New Roman" font-size="16" transform="scale(1 -1)">
  <g id="Spread" transform="translate(0 -45)">
   <g id="Layer 1">
    <g id="Group" stroke-linecap="round" stroke-width="0.75" stroke-miterlimit="79.8403193612775">
     <path d="M 0.375,24.375 L 0.375,26.25 C 0.375,27.933 2.068,29.625 3.75,29.625 L 24,29.625 C 24.62,29.625 25.125,29.12 25.125,28.5 C 25.125,27.879 24.62,27.375 24,27.375 L 3.75,27.375 C 3.612,27.375 3.316,27.27 3.022,26.977 C 2.727,26.681 2.625,26.39 2.625,26.25 L 2.625,24.375 L 0.375,24.375 Z" stroke-linejoin="round" stroke="#489E1C" marker-start="none" marker-end="none"/>
     <path d="M 30.002,19.875 C 32.277,19.875 34.125,18.025 34.125,15.748 C 34.125,13.473 32.277,11.625 30.002,11.625 C 27.725,11.625 25.875,13.473 25.875,15.748 C 25.875,18.025 27.725,19.875 30.002,19.875 Z" stroke-linejoin="round" stroke="#489E1C" marker-start="none" marker-end="none"/>
     <path d="M 30.001,17.625 C 31.035,17.625 31.875,16.784 31.875,15.749 C 31.875,14.715 31.035,13.875 30.001,13.875 C 28.966,13.875 28.125,14.715 28.125,15.749 C 28.125,16.784 28.966,17.625 30.001,17.625 Z" stroke-linejoin="round" stroke="#489E1C" marker-start="none" marker-end="none"/>
     <path d="M 10.502,18.375 C 12.363,18.375 13.875,16.861 13.875,14.998 C 13.875,13.137 12.363,11.625 10.502,11.625 C 8.639,11.625 7.125,13.137 7.125,14.998 C 7.125,16.861 8.639,18.375 10.502,18.375 Z" stroke-linejoin="round" stroke="#489E1C" marker-start="none" marker-end="none"/>
     <path d="M 10.501,16.125 C 11.121,16.125 11.625,15.62 11.625,14.999 C 11.625,14.379 11.121,13.875 10.501,13.875 C 9.88,13.875 9.375,14.379 9.375,14.999 C 9.375,15.62 9.88,16.125 10.501,16.125 Z" stroke-linejoin="round" stroke="#489E1C" marker-start="none" marker-end="none"/>
     <path d="M 40.5,12.375 L 37.126,14.251 L 37.126,14.625 M 40.5,12.375 L 43.875,14.25 L 43.875,18 L 40.501,19.875 L 37.126,18.001 L 37.126,17.625" fill="none" stroke-linejoin="round" stroke="#489E1C"/>
     <path d="M 31.875,22.125 L 37.875,22.125 L 39.375,29.625" fill="none" stroke-linejoin="round" stroke="#489E1C"/>
     <path d="M 31.875,22.125 L 31.875,29.625 L 40.125,29.625" fill="none" stroke-linejoin="round" stroke="#489E1C"/>
     <path d="M 36.375,29.625 L 35.615,22.125" fill="none" stroke-linejoin="round" stroke="#489E1C"/>
     <path d="M 20.625,29.625 L 17.625,32.625 L 33.375,32.625 L 31.875,29.625" fill="none" stroke-linejoin="round" stroke="#489E1C"/>
     <path d="M 33.375,22.125 L 33.375,18.375" fill="none" stroke-linejoin="round" stroke="#489E1C"/>
     <path d="M 5.625,27.375 C 5.467,25.66 4.916,24.192 4.125,22.875 C 5.353,21.446 6.948,20.625 8.625,20.625 L 11.625,20.625 L 11.625,18.375" fill="none" stroke-linejoin="round" stroke="#489E1C"/>
     <path d="M 13.875,15.375 L 25.875,15.375" fill="none" stroke-linejoin="round" stroke="#489E1C"/>
     <path d="M 34.125,17.625 L 40.875,17.625 L 40.875,14.625 L 34.125,14.625" fill="none" stroke-linejoin="round" stroke="#489E1C"/>
     <path d="M 11.625,20.625 L 22.875,20.625 L 26.625,23.625 L 31.875,23.625" fill="none" stroke-linejoin="round" stroke="#489E1C"/>
     <path d="M 4.875,22.875 L 25.125,22.875" fill="none" stroke-linejoin="round" stroke="#489E1C"/>
     <path d="M 0,45 L 0,0.002 L 45,0.002 L 45,45 L 0,45 Z" stroke-linejoin="miter" stroke="none" marker-start="none" marker-end="none"/>
    </g>
   </g>
  </g>
 </g>
</svg>
