<?xml version="1.0" standalone="no"?>
<!DOCTYPE svg PUBLIC "-//W3C//DTD SVG 1.1//EN" "http://www.w3.org/Graphics/SVG/1.1/DTD/svg11.dtd">
<!--Generator: Xara Xtreme (www.xara.com), SVG filter version: 1.0.0.13-->
<svg stroke-width="0.501" stroke-linejoin="bevel" fill-rule="evenodd" xmlns:xlink="http://www.w3.org/1999/xlink" xmlns="http://www.w3.org/2000/svg" version="1.1" overflow="visible" width="45pt" height="45pt" viewBox="0 0 45 45">
 <defs>
  <marker id="DefaultArrow2" markerUnits="strokeWidth" viewBox="0 0 1 1" markerWidth="1" markerHeight="1" overflow="visible" orient="auto">
   <!-- REF_ARROW_STRAIGHT (-2) -->
   <g transform="scale(0.0092592592)">
    <!-- 1/108 -->
    <path d="M -9 54 L -9 -54 L 117 0 z"/>
   </g>
  </marker>
  <marker id="DefaultArrow3" markerUnits="strokeWidth" viewBox="0 0 1 1" markerWidth="1" markerHeight="1" overflow="visible" orient="auto">
   <!-- REF_ARROW_ANGLED -->
   <g transform="scale(0.0092592592)">
    <path d="M -27 54 L -9 0 L -27 -54 L 135 0 z"/>
   </g>
  </marker>
  <marker id="DefaultArrow4" markerUnits="strokeWidth" viewBox="0 0 1 1" markerWidth="1" markerHeight="1" overflow="visible" orient="auto">
   <!-- REF_ARROW_ROUNDED -->
   <g transform="scale(0.0092592592)">
    <path d="M -9,0 L -9,-45 C -9,-51.708 2.808,-56.580 9,-54 L 117,-9 C 120.916,-7.369 126.000,-4.242 126,0 C 126,4.242 120.916,7.369 117,9 L 9,54 C 2.808,56.580 -9,51.708 -9,45 z"/>
   </g>
  </marker>
  <marker id="DefaultArrow5" markerUnits="strokeWidth" viewBox="0 0 1 1" markerWidth="1" markerHeight="1" overflow="visible" orient="auto">
   <!-- REF_ARROW_SPOT -->
   <g transform="scale(0.0092592592)">
    <path d="M -54, 0 C -54,29.807 -29.807,54 0,54 C 29.807,54 54,29.807 54,0 C 54,-29.807 29.807,-54 0,-54 C -29.807,-54 -54,-29.807 -54,0 z"/>
   </g>
  </marker>
  <marker id="DefaultArrow6" markerUnits="strokeWidth" viewBox="0 0 1 1" markerWidth="1" markerHeight="1" overflow="visible" orient="auto">
   <!-- REF_ARROW_DIAMOND -->
   <g transform="scale(0.0092592592)">
    <path d="M -63,0 L 0,63 L 63,0 L 0,-63 z"/>
   </g>
  </marker>
  <marker id="DefaultArrow7" markerUnits="strokeWidth" viewBox="0 0 1 1" markerWidth="1" markerHeight="1" overflow="visible" orient="auto">
   <!-- REF_ARROW_FEATHER -->
   <g transform="scale(0.0092592592)">
    <path d="M 18,-54 L 108,-54 L 63,0 L 108,54 L 18, 54 L -36,0 z"/>
   </g>
  </marker>
  <marker id="DefaultArrow8" markerUnits="strokeWidth" viewBox="0 0 1 1" markerWidth="1" markerHeight="1" overflow="visible" orient="auto">
   <!-- REF_ARROW_FEATHER2 -->
   <g transform="scale(0.0092592592)">
    <path d="M -36,0 L 18,-54 L 54,-54 L 18,-18 L 27,-18 L 63,-54 L 99,-54 L 63,-18 L 72,-18 L 108,-54 L 144,-54 L 90,0 L 144,54 L 108,54 L 72,18 L 63,18 L 99,54 L 63,54 L 27,18 L 18,18 L 54,54 L 18,54 z"/>
   </g>
  </marker>
  <marker id="DefaultArrow9" markerUnits="strokeWidth" viewBox="0 0 1 1" markerWidth="1" markerHeight="1" overflow="visible" orient="auto">
   <!-- REF_ARROW_HOLLOWDIAMOND -->
   <g transform="scale(0.0092592592)">
    <path d="M 0,45 L -45,0 L 0, -45 L 45, 0 z M 0, 63 L-63, 0 L 0, -63 L 63, 0 z"/>
   </g>
  </marker>
  <filter id="StainedFilter">
   <feBlend mode="multiply" in2="BackgroundImage" in="SourceGraphic" result="blend"/>
   <feComposite in="blend" in2="SourceAlpha" operator="in" result="comp"/>
  </filter>
  <filter id="BleachFilter">
   <feBlend mode="screen" in2="BackgroundImage" in="SourceGraphic" result="blend"/>
   <feComposite in="blend" in2="SourceAlpha" operator="in" result="comp"/>
  </filter>
  <filter id="InvertTransparencyBitmapFilter">
   <feComponentTransfer>
    <feFuncR type="gamma" amplitude="1.055" exponent=".416666666" offset="-0.055"/>
    <feFuncG type="gamma" amplitude="1.055" exponent=".416666666" offset="-0.055"/>
    <feFuncB type="gamma" amplitude="1.055" exponent=".416666666" offset="-0.055"/>
   </feComponentTransfer>
   <feComponentTransfer>
    <feFuncR type="linear" slope="-1" intercept="1"/>
    <feFuncG type="linear" slope="-1" intercept="1"/>
    <feFuncB type="linear" slope="-1" intercept="1"/>
    <feFuncA type="linear" slope="1" intercept="0"/>
   </feComponentTransfer>
   <feComponentTransfer>
    <feFuncR type="gamma" amplitude="1" exponent="2.4" offset="0"/>
    <feFuncG type="gamma" amplitude="1" exponent="2.4" offset="0"/>
    <feFuncB type="gamma" amplitude="1" exponent="2.4" offset="0"/>
   </feComponentTransfer>
  </filter>
 </defs>
 <g id="Document" fill="none" stroke="black" font-family="Times New Roman" font-size="16" transform="scale(1 -1)">
  <g id="Spread" transform="translate(0 -45)">
   <g id="Layer 1">
    <g id="Group" stroke-linecap="round" stroke-width="0.75" stroke-miterlimit="79.8403193612775">
     <path d="M 20.625,28.876 L 20.625,25.876 L 18.375,21.376 L 16.125,25.876 L 16.125,28.876 L 20.625,28.876 Z" stroke-linejoin="round" stroke="#489E1C" marker-start="none" marker-end="none"/>
     <path d="M 13.125,28.876 L 13.125,25.876 L 10.875,21.376 L 8.625,25.876 L 8.625,28.876 L 13.125,28.876 Z" stroke-linejoin="round" stroke="#489E1C" marker-start="none" marker-end="none"/>
     <path d="M 5.625,28.876 L 5.625,25.876 L 3.375,21.376 L 1.125,25.876 L 1.125,28.876 L 5.625,28.876 Z" stroke-linejoin="round" stroke="#489E1C" marker-start="none" marker-end="none"/>
     <path d="M 43.125,28.876 L 43.125,25.876 L 40.875,21.376 L 38.625,25.876 L 38.625,28.876 L 43.125,28.876 Z" stroke-linejoin="round" stroke="#489E1C" marker-start="none" marker-end="none"/>
     <path d="M 35.625,28.876 L 35.625,25.876 L 33.375,21.376 L 31.125,25.876 L 31.125,28.876 L 35.625,28.876 Z" stroke-linejoin="round" stroke="#489E1C" marker-start="none" marker-end="none"/>
     <path d="M 28.125,28.876 L 28.125,25.876 L 25.875,21.376 L 23.625,25.876 L 23.625,28.876 L 28.125,28.876 Z" stroke-linejoin="round" stroke="#489E1C" marker-start="none" marker-end="none"/>
     <path d="M 7.125,26.626 L 7.125,19.876" fill="none" stroke-linejoin="round" stroke="#489E1C"/>
     <path d="M 3.375,19.876 L 40.875,19.876" fill="none" stroke-linejoin="round" stroke="#489E1C"/>
     <path d="M 14.624,26.626 L 14.624,19.876" fill="none" stroke-linejoin="round" stroke="#489E1C"/>
     <path d="M 22.125,26.626 L 22.125,19.876" fill="none" stroke-linejoin="round" stroke="#489E1C"/>
     <path d="M 29.624,26.626 L 29.624,19.876" fill="none" stroke-linejoin="round" stroke="#489E1C"/>
     <path d="M 37.124,26.626 L 37.124,19.876" fill="none" stroke-linejoin="round" stroke="#489E1C"/>
     <path d="M 18.375,21.376 L 18.376,17.626 C 18.376,16.798 17.872,16.126 17.251,16.126 C 16.63,16.126 16.126,16.798 16.126,17.626" fill="none" stroke-linejoin="round" stroke="#489E1C"/>
     <path d="M 20.625,17.626 C 20.625,16.798 20.121,16.126 19.5,16.126 C 18.879,16.126 18.375,16.798 18.375,17.626" fill="none" stroke-linejoin="round" stroke="#489E1C"/>
     <path d="M 10.874,21.376 L 10.875,17.626 C 10.875,16.798 10.371,16.126 9.75,16.126 C 9.129,16.126 8.625,16.798 8.625,17.626" fill="none" stroke-linejoin="round" stroke="#489E1C"/>
     <path d="M 13.124,17.626 C 13.124,16.798 12.62,16.126 11.999,16.126 C 11.378,16.126 10.874,16.798 10.874,17.626" fill="none" stroke-linejoin="round" stroke="#489E1C"/>
     <path d="M 3.374,21.376 L 3.375,17.626 C 3.375,16.798 2.871,16.126 2.25,16.126 C 1.629,16.126 1.125,16.798 1.125,17.626" fill="none" stroke-linejoin="round" stroke="#489E1C"/>
     <path d="M 5.624,17.626 C 5.624,16.798 5.12,16.126 4.499,16.126 C 3.878,16.126 3.374,16.798 3.374,17.626" fill="none" stroke-linejoin="round" stroke="#489E1C"/>
     <path d="M 40.875,21.376 L 40.876,17.626 C 40.876,16.798 40.372,16.126 39.751,16.126 C 39.13,16.126 38.626,16.798 38.626,17.626" fill="none" stroke-linejoin="round" stroke="#489E1C"/>
     <path d="M 43.125,17.626 C 43.125,16.798 42.621,16.126 42,16.126 C 41.379,16.126 40.875,16.798 40.875,17.626" fill="none" stroke-linejoin="round" stroke="#489E1C"/>
     <path d="M 33.374,21.376 L 33.375,17.626 C 33.375,16.798 32.871,16.126 32.25,16.126 C 31.629,16.126 31.125,16.798 31.125,17.626" fill="none" stroke-linejoin="round" stroke="#489E1C"/>
     <path d="M 35.624,17.626 C 35.624,16.798 35.12,16.126 34.499,16.126 C 33.878,16.126 33.374,16.798 33.374,17.626" fill="none" stroke-linejoin="round" stroke="#489E1C"/>
     <path d="M 25.874,21.376 L 25.875,17.626 C 25.875,16.798 25.371,16.126 24.75,16.126 C 24.129,16.126 23.625,16.798 23.625,17.626" fill="none" stroke-linejoin="round" stroke="#489E1C"/>
     <path d="M 28.124,17.626 C 28.124,16.798 27.62,16.126 26.999,16.126 C 26.378,16.126 25.874,16.798 25.874,17.626" fill="none" stroke-linejoin="round" stroke="#489E1C"/>
     <path d="M 0,45 L 0,0.002 L 45,0.002 L 45,45 L 0,45 Z" stroke-linejoin="miter" stroke="none" marker-start="none" marker-end="none"/>
    </g>
   </g>
  </g>
 </g>
</svg>
