<?xml version="1.0" standalone="no"?>
<!DOCTYPE svg PUBLIC "-//W3C//DTD SVG 1.1//EN" "http://www.w3.org/Graphics/SVG/1.1/DTD/svg11.dtd">
<!--Generator: Xara Xtreme (www.xara.com), SVG filter version: 1.0.0.13-->
<svg stroke-width="0.501" stroke-linejoin="bevel" fill-rule="evenodd" xmlns:xlink="http://www.w3.org/1999/xlink" xmlns="http://www.w3.org/2000/svg" version="1.1" overflow="visible" width="45pt" height="45pt" viewBox="0 0 45 45">
 <defs>
  <marker id="DefaultArrow2" markerUnits="strokeWidth" viewBox="0 0 1 1" markerWidth="1" markerHeight="1" overflow="visible" orient="auto">
   <!-- REF_ARROW_STRAIGHT (-2) -->
   <g transform="scale(0.0092592592)">
    <!-- 1/108 -->
    <path d="M -9 54 L -9 -54 L 117 0 z"/>
   </g>
  </marker>
  <marker id="DefaultArrow3" markerUnits="strokeWidth" viewBox="0 0 1 1" markerWidth="1" markerHeight="1" overflow="visible" orient="auto">
   <!-- REF_ARROW_ANGLED -->
   <g transform="scale(0.0092592592)">
    <path d="M -27 54 L -9 0 L -27 -54 L 135 0 z"/>
   </g>
  </marker>
  <marker id="DefaultArrow4" markerUnits="strokeWidth" viewBox="0 0 1 1" markerWidth="1" markerHeight="1" overflow="visible" orient="auto">
   <!-- REF_ARROW_ROUNDED -->
   <g transform="scale(0.0092592592)">
    <path d="M -9,0 L -9,-45 C -9,-51.708 2.808,-56.580 9,-54 L 117,-9 C 120.916,-7.369 126.000,-4.242 126,0 C 126,4.242 120.916,7.369 117,9 L 9,54 C 2.808,56.580 -9,51.708 -9,45 z"/>
   </g>
  </marker>
  <marker id="DefaultArrow5" markerUnits="strokeWidth" viewBox="0 0 1 1" markerWidth="1" markerHeight="1" overflow="visible" orient="auto">
   <!-- REF_ARROW_SPOT -->
   <g transform="scale(0.0092592592)">
    <path d="M -54, 0 C -54,29.807 -29.807,54 0,54 C 29.807,54 54,29.807 54,0 C 54,-29.807 29.807,-54 0,-54 C -29.807,-54 -54,-29.807 -54,0 z"/>
   </g>
  </marker>
  <marker id="DefaultArrow6" markerUnits="strokeWidth" viewBox="0 0 1 1" markerWidth="1" markerHeight="1" overflow="visible" orient="auto">
   <!-- REF_ARROW_DIAMOND -->
   <g transform="scale(0.0092592592)">
    <path d="M -63,0 L 0,63 L 63,0 L 0,-63 z"/>
   </g>
  </marker>
  <marker id="DefaultArrow7" markerUnits="strokeWidth" viewBox="0 0 1 1" markerWidth="1" markerHeight="1" overflow="visible" orient="auto">
   <!-- REF_ARROW_FEATHER -->
   <g transform="scale(0.0092592592)">
    <path d="M 18,-54 L 108,-54 L 63,0 L 108,54 L 18, 54 L -36,0 z"/>
   </g>
  </marker>
  <marker id="DefaultArrow8" markerUnits="strokeWidth" viewBox="0 0 1 1" markerWidth="1" markerHeight="1" overflow="visible" orient="auto">
   <!-- REF_ARROW_FEATHER2 -->
   <g transform="scale(0.0092592592)">
    <path d="M -36,0 L 18,-54 L 54,-54 L 18,-18 L 27,-18 L 63,-54 L 99,-54 L 63,-18 L 72,-18 L 108,-54 L 144,-54 L 90,0 L 144,54 L 108,54 L 72,18 L 63,18 L 99,54 L 63,54 L 27,18 L 18,18 L 54,54 L 18,54 z"/>
   </g>
  </marker>
  <marker id="DefaultArrow9" markerUnits="strokeWidth" viewBox="0 0 1 1" markerWidth="1" markerHeight="1" overflow="visible" orient="auto">
   <!-- REF_ARROW_HOLLOWDIAMOND -->
   <g transform="scale(0.0092592592)">
    <path d="M 0,45 L -45,0 L 0, -45 L 45, 0 z M 0, 63 L-63, 0 L 0, -63 L 63, 0 z"/>
   </g>
  </marker>
  <filter id="StainedFilter">
   <feBlend mode="multiply" in2="BackgroundImage" in="SourceGraphic" result="blend"/>
   <feComposite in="blend" in2="SourceAlpha" operator="in" result="comp"/>
  </filter>
  <filter id="BleachFilter">
   <feBlend mode="screen" in2="BackgroundImage" in="SourceGraphic" result="blend"/>
   <feComposite in="blend" in2="SourceAlpha" operator="in" result="comp"/>
  </filter>
  <filter id="InvertTransparencyBitmapFilter">
   <feComponentTransfer>
    <feFuncR type="gamma" amplitude="1.055" exponent=".416666666" offset="-0.055"/>
    <feFuncG type="gamma" amplitude="1.055" exponent=".416666666" offset="-0.055"/>
    <feFuncB type="gamma" amplitude="1.055" exponent=".416666666" offset="-0.055"/>
   </feComponentTransfer>
   <feComponentTransfer>
    <feFuncR type="linear" slope="-1" intercept="1"/>
    <feFuncG type="linear" slope="-1" intercept="1"/>
    <feFuncB type="linear" slope="-1" intercept="1"/>
    <feFuncA type="linear" slope="1" intercept="0"/>
   </feComponentTransfer>
   <feComponentTransfer>
    <feFuncR type="gamma" amplitude="1" exponent="2.4" offset="0"/>
    <feFuncG type="gamma" amplitude="1" exponent="2.4" offset="0"/>
    <feFuncB type="gamma" amplitude="1" exponent="2.4" offset="0"/>
   </feComponentTransfer>
  </filter>
 </defs>
 <g id="Document" fill="none" stroke="black" font-family="Times New Roman" font-size="16" transform="scale(1 -1)">
  <g id="Spread" transform="translate(0 -45)">
   <g id="Layer 1">
    <g id="Group" stroke-linecap="round" stroke-width="0.75" stroke-miterlimit="79.8403193612775">
     <g id="Group_1" stroke-linejoin="round" stroke="#489E1C">
      <path d="M 41.625,23.624 L 41.625,21.373 L 3.374,21.373 L 3.374,23.624 L 41.625,23.624 Z" marker-start="none" marker-end="none"/>
      <path d="M 21.374,21.374 L 21.374,16.124 L 22.499,13.124 L 23.624,16.124 L 23.624,21.374" fill="none"/>
      <path d="M 16.874,21.374 L 16.874,18.374 L 17.999,15.374 L 19.124,18.374 L 19.124,21.374" fill="none"/>
      <path d="M 12.374,21.374 L 12.374,16.124 L 13.499,13.124 L 14.624,16.124 L 14.624,21.374" fill="none"/>
      <path d="M 7.874,21.374 L 7.874,18.374 L 8.999,15.374 L 10.124,18.374 L 10.124,21.374" fill="none"/>
      <path d="M 3.374,21.374 L 3.374,16.124 L 4.499,13.124 L 5.624,16.124 L 5.624,21.374" fill="none"/>
      <path d="M 28.124,21.374 L 28.124,18.374 L 26.999,15.374 L 25.874,18.374 L 25.874,21.374" fill="none"/>
      <path d="M 32.624,21.374 L 32.624,16.124 L 31.499,13.124 L 30.374,16.124 L 30.374,21.374" fill="none"/>
      <path d="M 37.124,21.374 L 37.124,18.374 L 35.999,15.374 L 34.874,18.374 L 34.874,21.374" fill="none"/>
      <path d="M 41.624,21.374 L 41.624,16.124 L 40.499,13.124 L 39.374,16.124 L 39.374,21.374" fill="none"/>
      <path d="M 5.621,28.124 L 5.621,25.873 L 39.374,25.873 L 39.374,28.124 L 5.621,28.124 Z" marker-start="none" marker-end="none"/>
      <path d="M 10.123,25.874 L 10.123,23.624" fill="none"/>
      <path d="M 17.623,25.874 L 17.623,23.624" fill="none"/>
      <path d="M 34.873,25.874 L 34.873,23.624" fill="none"/>
      <path d="M 27.373,25.874 L 27.373,23.624" fill="none"/>
      <path d="M 5.624,28.124 L 3.374,23.624" fill="none"/>
      <path d="M 39.374,28.124 L 41.624,23.624" fill="none"/>
      <path d="M 18.374,28.124 L 22.499,31.874 L 26.624,28.124" fill="none"/>
     </g>
     <path d="M 45,45 L 45,0.002 L 0,0.002 L 0,45 L 45,45 Z" stroke-linejoin="miter" stroke="none" marker-start="none" marker-end="none"/>
    </g>
   </g>
  </g>
 </g>
</svg>
