<?xml version="1.0" standalone="no"?>
<!DOCTYPE svg PUBLIC "-//W3C//DTD SVG 1.1//EN" "http://www.w3.org/Graphics/SVG/1.1/DTD/svg11.dtd">
<!--Generator: Xara Xtreme (www.xara.com), SVG filter version: 1.0.0.13-->
<svg stroke-width="0.501" stroke-linejoin="bevel" fill-rule="evenodd" xmlns:xlink="http://www.w3.org/1999/xlink" xmlns="http://www.w3.org/2000/svg" version="1.1" overflow="visible" width="45pt" height="45pt" viewBox="0 0 45 45">
 <defs>
  <marker id="DefaultArrow2" markerUnits="strokeWidth" viewBox="0 0 1 1" markerWidth="1" markerHeight="1" overflow="visible" orient="auto">
   <!-- REF_ARROW_STRAIGHT (-2) -->
   <g transform="scale(0.0092592592)">
    <!-- 1/108 -->
    <path d="M -9 54 L -9 -54 L 117 0 z"/>
   </g>
  </marker>
  <marker id="DefaultArrow3" markerUnits="strokeWidth" viewBox="0 0 1 1" markerWidth="1" markerHeight="1" overflow="visible" orient="auto">
   <!-- REF_ARROW_ANGLED -->
   <g transform="scale(0.0092592592)">
    <path d="M -27 54 L -9 0 L -27 -54 L 135 0 z"/>
   </g>
  </marker>
  <marker id="DefaultArrow4" markerUnits="strokeWidth" viewBox="0 0 1 1" markerWidth="1" markerHeight="1" overflow="visible" orient="auto">
   <!-- REF_ARROW_ROUNDED -->
   <g transform="scale(0.0092592592)">
    <path d="M -9,0 L -9,-45 C -9,-51.708 2.808,-56.580 9,-54 L 117,-9 C 120.916,-7.369 126.000,-4.242 126,0 C 126,4.242 120.916,7.369 117,9 L 9,54 C 2.808,56.580 -9,51.708 -9,45 z"/>
   </g>
  </marker>
  <marker id="DefaultArrow5" markerUnits="strokeWidth" viewBox="0 0 1 1" markerWidth="1" markerHeight="1" overflow="visible" orient="auto">
   <!-- REF_ARROW_SPOT -->
   <g transform="scale(0.0092592592)">
    <path d="M -54, 0 C -54,29.807 -29.807,54 0,54 C 29.807,54 54,29.807 54,0 C 54,-29.807 29.807,-54 0,-54 C -29.807,-54 -54,-29.807 -54,0 z"/>
   </g>
  </marker>
  <marker id="DefaultArrow6" markerUnits="strokeWidth" viewBox="0 0 1 1" markerWidth="1" markerHeight="1" overflow="visible" orient="auto">
   <!-- REF_ARROW_DIAMOND -->
   <g transform="scale(0.0092592592)">
    <path d="M -63,0 L 0,63 L 63,0 L 0,-63 z"/>
   </g>
  </marker>
  <marker id="DefaultArrow7" markerUnits="strokeWidth" viewBox="0 0 1 1" markerWidth="1" markerHeight="1" overflow="visible" orient="auto">
   <!-- REF_ARROW_FEATHER -->
   <g transform="scale(0.0092592592)">
    <path d="M 18,-54 L 108,-54 L 63,0 L 108,54 L 18, 54 L -36,0 z"/>
   </g>
  </marker>
  <marker id="DefaultArrow8" markerUnits="strokeWidth" viewBox="0 0 1 1" markerWidth="1" markerHeight="1" overflow="visible" orient="auto">
   <!-- REF_ARROW_FEATHER2 -->
   <g transform="scale(0.0092592592)">
    <path d="M -36,0 L 18,-54 L 54,-54 L 18,-18 L 27,-18 L 63,-54 L 99,-54 L 63,-18 L 72,-18 L 108,-54 L 144,-54 L 90,0 L 144,54 L 108,54 L 72,18 L 63,18 L 99,54 L 63,54 L 27,18 L 18,18 L 54,54 L 18,54 z"/>
   </g>
  </marker>
  <marker id="DefaultArrow9" markerUnits="strokeWidth" viewBox="0 0 1 1" markerWidth="1" markerHeight="1" overflow="visible" orient="auto">
   <!-- REF_ARROW_HOLLOWDIAMOND -->
   <g transform="scale(0.0092592592)">
    <path d="M 0,45 L -45,0 L 0, -45 L 45, 0 z M 0, 63 L-63, 0 L 0, -63 L 63, 0 z"/>
   </g>
  </marker>
  <filter id="StainedFilter">
   <feBlend mode="multiply" in2="BackgroundImage" in="SourceGraphic" result="blend"/>
   <feComposite in="blend" in2="SourceAlpha" operator="in" result="comp"/>
  </filter>
  <filter id="BleachFilter">
   <feBlend mode="screen" in2="BackgroundImage" in="SourceGraphic" result="blend"/>
   <feComposite in="blend" in2="SourceAlpha" operator="in" result="comp"/>
  </filter>
  <filter id="InvertTransparencyBitmapFilter">
   <feComponentTransfer>
    <feFuncR type="gamma" amplitude="1.055" exponent=".416666666" offset="-0.055"/>
    <feFuncG type="gamma" amplitude="1.055" exponent=".416666666" offset="-0.055"/>
    <feFuncB type="gamma" amplitude="1.055" exponent=".416666666" offset="-0.055"/>
   </feComponentTransfer>
   <feComponentTransfer>
    <feFuncR type="linear" slope="-1" intercept="1"/>
    <feFuncG type="linear" slope="-1" intercept="1"/>
    <feFuncB type="linear" slope="-1" intercept="1"/>
    <feFuncA type="linear" slope="1" intercept="0"/>
   </feComponentTransfer>
   <feComponentTransfer>
    <feFuncR type="gamma" amplitude="1" exponent="2.4" offset="0"/>
    <feFuncG type="gamma" amplitude="1" exponent="2.4" offset="0"/>
    <feFuncB type="gamma" amplitude="1" exponent="2.4" offset="0"/>
   </feComponentTransfer>
  </filter>
 </defs>
 <g id="Document" fill="none" stroke="black" font-family="Times New Roman" font-size="16" transform="scale(1 -1)">
  <g id="Spread" transform="translate(0 -45)">
   <g id="Layer 1">
    <g id="Group" stroke-linecap="round">
     <path d="M 11.625,22.123 C 15.351,22.123 18.375,19.099 18.375,15.373 C 18.375,11.647 15.351,8.623 11.625,8.623 C 7.899,8.623 4.875,11.647 4.875,15.373 C 4.875,19.099 7.899,22.123 11.625,22.123 Z" stroke-linejoin="round" stroke="#489E1C" stroke-width="0.75" marker-start="none" marker-end="none" stroke-miterlimit="79.8403193612775"/>
     <path d="M 11.625,16.873 C 12.453,16.873 13.125,16.201 13.125,15.373 C 13.125,14.545 12.453,13.873 11.625,13.873 C 10.797,13.873 10.125,14.545 10.125,15.373 C 10.125,16.201 10.797,16.873 11.625,16.873 Z" stroke-linejoin="round" stroke="#489E1C" stroke-width="0.75" marker-start="none" marker-end="none" stroke-miterlimit="79.8403193612775"/>
     <path d="M 31.875,19.123 C 34.773,19.123 37.125,16.771 37.125,13.873 C 37.125,10.975 34.773,8.623 31.875,8.623 C 28.977,8.623 26.625,10.975 26.625,13.873 C 26.625,16.771 28.977,19.123 31.875,19.123 Z" stroke-linejoin="round" stroke="#489E1C" stroke-width="0.75" marker-start="none" marker-end="none" stroke-miterlimit="79.8403193612775"/>
     <path d="M 31.875,15.373 C 32.703,15.373 33.375,14.701 33.375,13.873 C 33.375,13.045 32.703,12.373 31.875,12.373 C 31.047,12.373 30.375,13.045 30.375,13.873 C 30.375,14.701 31.047,15.373 31.875,15.373 Z" stroke-linejoin="round" stroke="#489E1C" stroke-width="0.75" marker-start="none" marker-end="none" stroke-miterlimit="79.8403193612775"/>
     <path d="M 31.875,21.373 C 27.735,21.373 24.375,18.013 24.375,13.873 C 24.375,13.643 24.385,13.414 24.406,13.189 L 24.375,13.123 L 20.625,13.123 L 20.351,13.162 C 20.53,13.869 20.625,14.61 20.625,15.373 C 20.625,20.341 16.593,24.373 11.625,24.373 C 9.469,24.373 7.49,23.614 5.939,22.348" fill="none" stroke-linejoin="round" stroke="#489E1C" stroke-width="0.75" stroke-miterlimit="79.8403193612775"/>
     <path d="M 37.756,13.123 L 38.56,13.123 C 39.01,13.123 39.375,13.506 39.375,13.979 L 39.375,16.017 C 39.375,16.49 39.01,16.873 38.56,16.873 L 36.659,16.873" fill="none" stroke-linejoin="round" stroke="#489E1C" stroke-width="0.75" stroke-miterlimit="79.8403193612775"/>
     <path d="M 20.625,17.622 L 25.125,17.622" fill="none" stroke-linejoin="round" stroke="#489E1C" stroke-width="0.75" stroke-miterlimit="79.8403193612775"/>
     <path d="M 24.375,17.623 L 24.375,26.623 L 22.875,33.373" fill="none" stroke-linejoin="round" stroke="#489E1C" stroke-width="0.75" stroke-miterlimit="79.8403193612775"/>
     <path d="M 8.625,35.623 L 25.125,35.623 L 25.125,34.124 L 24.519,33.373 L 9.231,33.373 L 8.625,34.124 L 8.625,35.623 Z" stroke-linejoin="round" stroke="#489E1C" stroke-width="0.75" marker-start="none" marker-end="none" stroke-miterlimit="79.8403193612775"/>
     <path d="M 24.17,22.386 L 22.153,24.402 L 22.881,26.623 L 24.663,26.623 C 26.743,26.623 32.628,25.148 35.938,23.655 C 36.511,23.385 37.125,22.909 37.125,22.326 C 37.125,21.702 36.814,21.066 36.554,20.548 L 35.346,18.314" fill="none" stroke-linejoin="round" stroke="#489E1C" stroke-width="0.75" stroke-miterlimit="79.8403193612775"/>
     <path d="M 19.875,24.373 L 21.125,28.123" fill="none" stroke-linejoin="round" stroke="#489E1C" stroke-width="0.75" stroke-miterlimit="79.8403193612775"/>
     <path d="M 20.781,25.946 L 22.125,25.496" fill="none" stroke-linejoin="round" stroke="#489E1C" stroke-width="0.75" stroke-miterlimit="79.8403193612775"/>
     <path d="M 26.625,26.499 L 26.625,28.873 L 29.625,28.873 L 29.625,25.904" fill="none" stroke-linejoin="round" stroke="#489E1C" stroke-width="0.75" stroke-miterlimit="79.8403193612775"/>
     <path d="M 28.125,29.246 L 28.125,29.921 C 28.125,30.85 28.359,31.913 28.875,32.623" fill="none" stroke-linejoin="round" stroke="#489E1C" stroke-width="0.75" stroke-miterlimit="79.8403193612775"/>
     <path d="M 13.874,24.373 L 13.874,33.373" fill="none" stroke-linejoin="round" stroke="#489E1C" stroke-width="0.75" stroke-miterlimit="79.8403193612775"/>
     <path d="M 9.532,24.373 L 10.125,32.837" fill="none" stroke-linejoin="round" stroke="#489E1C" stroke-width="0.75" stroke-miterlimit="79.8403193612775"/>
     <path d="M 0,44.998 L 0,0 L 45,0 L 45,44.998 L 0,44.998 Z" stroke-linejoin="miter" stroke="none" stroke-width="0.188" marker-start="none" marker-end="none" stroke-miterlimit="79.8403193612775"/>
    </g>
   </g>
  </g>
 </g>
</svg>
