<?xml version="1.0" standalone="no"?>
<!DOCTYPE svg PUBLIC "-//W3C//DTD SVG 1.1//EN" "http://www.w3.org/Graphics/SVG/1.1/DTD/svg11.dtd">
<!--Generator: Xara Xtreme (www.xara.com), SVG filter version: 1.0.0.13-->
<svg stroke-width="0.501" stroke-linejoin="bevel" fill-rule="evenodd" xmlns:xlink="http://www.w3.org/1999/xlink" xmlns="http://www.w3.org/2000/svg" version="1.1" overflow="visible" width="45pt" height="45pt" viewBox="0 0 45 45">
 <defs>
  <marker id="DefaultArrow2" markerUnits="strokeWidth" viewBox="0 0 1 1" markerWidth="1" markerHeight="1" overflow="visible" orient="auto">
   <!-- REF_ARROW_STRAIGHT (-2) -->
   <g transform="scale(0.0092592592)">
    <!-- 1/108 -->
    <path d="M -9 54 L -9 -54 L 117 0 z"/>
   </g>
  </marker>
  <marker id="DefaultArrow3" markerUnits="strokeWidth" viewBox="0 0 1 1" markerWidth="1" markerHeight="1" overflow="visible" orient="auto">
   <!-- REF_ARROW_ANGLED -->
   <g transform="scale(0.0092592592)">
    <path d="M -27 54 L -9 0 L -27 -54 L 135 0 z"/>
   </g>
  </marker>
  <marker id="DefaultArrow4" markerUnits="strokeWidth" viewBox="0 0 1 1" markerWidth="1" markerHeight="1" overflow="visible" orient="auto">
   <!-- REF_ARROW_ROUNDED -->
   <g transform="scale(0.0092592592)">
    <path d="M -9,0 L -9,-45 C -9,-51.708 2.808,-56.580 9,-54 L 117,-9 C 120.916,-7.369 126.000,-4.242 126,0 C 126,4.242 120.916,7.369 117,9 L 9,54 C 2.808,56.580 -9,51.708 -9,45 z"/>
   </g>
  </marker>
  <marker id="DefaultArrow5" markerUnits="strokeWidth" viewBox="0 0 1 1" markerWidth="1" markerHeight="1" overflow="visible" orient="auto">
   <!-- REF_ARROW_SPOT -->
   <g transform="scale(0.0092592592)">
    <path d="M -54, 0 C -54,29.807 -29.807,54 0,54 C 29.807,54 54,29.807 54,0 C 54,-29.807 29.807,-54 0,-54 C -29.807,-54 -54,-29.807 -54,0 z"/>
   </g>
  </marker>
  <marker id="DefaultArrow6" markerUnits="strokeWidth" viewBox="0 0 1 1" markerWidth="1" markerHeight="1" overflow="visible" orient="auto">
   <!-- REF_ARROW_DIAMOND -->
   <g transform="scale(0.0092592592)">
    <path d="M -63,0 L 0,63 L 63,0 L 0,-63 z"/>
   </g>
  </marker>
  <marker id="DefaultArrow7" markerUnits="strokeWidth" viewBox="0 0 1 1" markerWidth="1" markerHeight="1" overflow="visible" orient="auto">
   <!-- REF_ARROW_FEATHER -->
   <g transform="scale(0.0092592592)">
    <path d="M 18,-54 L 108,-54 L 63,0 L 108,54 L 18, 54 L -36,0 z"/>
   </g>
  </marker>
  <marker id="DefaultArrow8" markerUnits="strokeWidth" viewBox="0 0 1 1" markerWidth="1" markerHeight="1" overflow="visible" orient="auto">
   <!-- REF_ARROW_FEATHER2 -->
   <g transform="scale(0.0092592592)">
    <path d="M -36,0 L 18,-54 L 54,-54 L 18,-18 L 27,-18 L 63,-54 L 99,-54 L 63,-18 L 72,-18 L 108,-54 L 144,-54 L 90,0 L 144,54 L 108,54 L 72,18 L 63,18 L 99,54 L 63,54 L 27,18 L 18,18 L 54,54 L 18,54 z"/>
   </g>
  </marker>
  <marker id="DefaultArrow9" markerUnits="strokeWidth" viewBox="0 0 1 1" markerWidth="1" markerHeight="1" overflow="visible" orient="auto">
   <!-- REF_ARROW_HOLLOWDIAMOND -->
   <g transform="scale(0.0092592592)">
    <path d="M 0,45 L -45,0 L 0, -45 L 45, 0 z M 0, 63 L-63, 0 L 0, -63 L 63, 0 z"/>
   </g>
  </marker>
  <filter id="StainedFilter">
   <feBlend mode="multiply" in2="BackgroundImage" in="SourceGraphic" result="blend"/>
   <feComposite in="blend" in2="SourceAlpha" operator="in" result="comp"/>
  </filter>
  <filter id="BleachFilter">
   <feBlend mode="screen" in2="BackgroundImage" in="SourceGraphic" result="blend"/>
   <feComposite in="blend" in2="SourceAlpha" operator="in" result="comp"/>
  </filter>
  <filter id="InvertTransparencyBitmapFilter">
   <feComponentTransfer>
    <feFuncR type="gamma" amplitude="1.055" exponent=".416666666" offset="-0.055"/>
    <feFuncG type="gamma" amplitude="1.055" exponent=".416666666" offset="-0.055"/>
    <feFuncB type="gamma" amplitude="1.055" exponent=".416666666" offset="-0.055"/>
   </feComponentTransfer>
   <feComponentTransfer>
    <feFuncR type="linear" slope="-1" intercept="1"/>
    <feFuncG type="linear" slope="-1" intercept="1"/>
    <feFuncB type="linear" slope="-1" intercept="1"/>
    <feFuncA type="linear" slope="1" intercept="0"/>
   </feComponentTransfer>
   <feComponentTransfer>
    <feFuncR type="gamma" amplitude="1" exponent="2.4" offset="0"/>
    <feFuncG type="gamma" amplitude="1" exponent="2.4" offset="0"/>
    <feFuncB type="gamma" amplitude="1" exponent="2.4" offset="0"/>
   </feComponentTransfer>
  </filter>
 </defs>
 <g id="Document" fill="none" stroke="black" font-family="Times New Roman" font-size="16" transform="scale(1 -1)">
  <g id="Spread" transform="translate(0 -45)">
   <g id="Layer 1">
    <g id="Group" stroke-linecap="round" stroke-width="0.75" stroke-miterlimit="79.8403193612775">
     <path d="M 7.126,16.123 C 8.781,16.123 10.125,14.778 10.125,13.122 C 10.125,11.467 8.781,10.123 7.126,10.123 C 5.47,10.123 4.125,11.467 4.125,13.122 C 4.125,14.778 5.47,16.123 7.126,16.123 Z" stroke-linejoin="round" stroke="#489E1C" marker-start="none" marker-end="none"/>
     <path d="M 7.126,13.873 C 7.539,13.873 7.875,13.537 7.875,13.122 C 7.875,12.709 7.539,12.373 7.126,12.373 C 6.711,12.373 6.375,12.709 6.375,13.122 C 6.375,13.537 6.711,13.873 7.126,13.873 Z" stroke-linejoin="round" stroke="#489E1C" marker-start="none" marker-end="none"/>
     <path d="M 1.875,13.121 C 1.875,16.019 4.229,18.373 7.127,18.373 C 10.023,18.373 12.375,16.019 12.375,13.121" fill="none" stroke-linejoin="round" stroke="#489E1C"/>
     <path d="M 27.376,16.123 C 29.031,16.123 30.375,14.778 30.375,13.122 C 30.375,11.467 29.031,10.123 27.376,10.123 C 25.72,10.123 24.375,11.467 24.375,13.122 C 24.375,14.778 25.72,16.123 27.376,16.123 Z" stroke-linejoin="round" stroke="#489E1C" marker-start="none" marker-end="none"/>
     <path d="M 27.376,13.873 C 27.789,13.873 28.125,13.537 28.125,13.122 C 28.125,12.709 27.789,12.373 27.376,12.373 C 26.961,12.373 26.625,12.709 26.625,13.122 C 26.625,13.537 26.961,13.873 27.376,13.873 Z" stroke-linejoin="round" stroke="#489E1C" marker-start="none" marker-end="none"/>
     <path d="M 22.125,13.121 C 22.125,16.019 24.479,18.373 27.377,18.373 C 30.273,18.373 32.625,16.019 32.625,13.121" fill="none" stroke-linejoin="round" stroke="#489E1C"/>
     <path d="M 0.375,34.123 L 0.375,18.373 L 36.375,18.373 L 36.375,34.123 L 0.375,34.123 Z" stroke-linejoin="round" stroke="#489E1C" marker-start="none" marker-end="none"/>
     <path d="M 12.114,15.372 L 22.386,15.372" fill="none" stroke-linejoin="round" stroke="#489E1C"/>
     <path d="M 32.625,15.373 L 34.875,15.373 L 34.875,18.373" fill="none" stroke-linejoin="round" stroke="#489E1C"/>
     <path d="M 34.875,16.123 L 43.875,16.123 L 43.875,18.373 L 36.375,18.373" fill="none" stroke-linejoin="round" stroke="#489E1C"/>
     <path d="M 9.374,18.373 L 9.374,34.123" fill="none" stroke-linejoin="round" stroke="#489E1C"/>
     <path d="M 18.374,18.373 L 18.374,34.123" fill="none" stroke-linejoin="round" stroke="#489E1C"/>
     <path d="M 27.374,18.373 L 27.374,34.123" fill="none" stroke-linejoin="round" stroke="#489E1C"/>
     <path d="M 0.375,31.873 L 36.375,31.873" fill="none" stroke-linejoin="round" stroke="#489E1C"/>
     <path d="M 0.375,29.623 L 36.375,29.623" fill="none" stroke-linejoin="round" stroke="#489E1C"/>
     <path d="M 0.375,27.373 L 36.375,27.373" fill="none" stroke-linejoin="round" stroke="#489E1C"/>
     <path d="M 0.375,25.123 L 36.375,25.123" fill="none" stroke-linejoin="round" stroke="#489E1C"/>
     <path d="M 0.375,22.873 L 36.375,22.873" fill="none" stroke-linejoin="round" stroke="#489E1C"/>
     <path d="M 0.375,20.623 L 36.375,20.623" fill="none" stroke-linejoin="round" stroke="#489E1C"/>
     <path d="M 0,44.998 L 0,0 L 45,0 L 45,44.998 L 0,44.998 Z" stroke-linejoin="miter" stroke="none" marker-start="none" marker-end="none"/>
    </g>
   </g>
  </g>
 </g>
</svg>
